<svg xmlns="http://www.w3.org/2000/svg" x="0px" y="0px" viewBox="0 0 1000 1000" enable-background="new 0 0 1000 1000" xml:space="preserve" id='pencil'>
<g><g><g><path d="M912.2,87.8C821.6-2.9,753.5,10.7,753.5,10.7L436.2,328.1L73.4,690.8L10,990l299.2-63.5l362.7-362.7l317.4-317.3C989.3,246.5,1002.9,178.5,912.2,87.8z M291.4,890.6l-102,22c-9.9-18.4-21.7-36.8-43.4-58.5c-21.7-21.7-40.1-33.5-58.5-43.4l22-102l29.5-29.5c0,0,55.5,1.1,118.2,63.8c62.7,62.7,63.8,118.2,63.8,118.2L291.4,890.6z"/></g></g><g></g><g></g><g></g><g></g><g></g><g></g><g></g><g></g><g></g><g></g><g></g><g></g><g></g><g></g><g></g></g>
</svg>