<svg xmlns="http://www.w3.org/2000/svg" viewBox="0 0 24 19.719" id='save'>
  <path id="アイコン" d="M975.589,39.055l-4.2-9.849a2.407,2.407,0,0,0-1.956-1.194H966.7l.507,5.343h3.6l-6.8,5.56-6.8-5.56h3.6l.507-5.343h-2.731a2.4,2.4,0,0,0-1.956,1.194l-4.2,9.849a4.766,4.766,0,0,0-.382,2.513l.907,4.845a1.651,1.651,0,0,0,1.574,1.318h18.96a1.65,1.65,0,0,0,1.574-1.318l.907-4.845A4.775,4.775,0,0,0,975.589,39.055Zm-1.817,3.451-.345,1.976a1.62,1.62,0,0,1-1.539,1.379H956.133a1.621,1.621,0,0,1-1.54-1.379l-.345-1.976a1.168,1.168,0,0,1,1.164-1.379h17.195A1.168,1.168,0,0,1,973.771,42.506Z" transform="translate(-952.01 -28.011)"/>
</svg>