<svg id="Group_87" data-name="Group 87" xmlns="http://www.w3.org/2000/svg" width="48" height="48" viewBox="0 0 48 48">
  <g id="input" fill="#339900" stroke="#bebebe" stroke-width="1">
    <path d="M0,0H40a8,8,0,0,1,8,8V40a8,8,0,0,1-8,8H0a0,0,0,0,1,0,0V0A0,0,0,0,1,0,0Z" stroke="none"/>
    <path d="M.5.5H40A7.5,7.5,0,0,1,47.5,8V40A7.5,7.5,0,0,1,40,47.5H.5a0,0,0,0,1,0,0V.5A0,0,0,0,1,.5.5Z" fill="none"/>
  </g>
  <path id="Polygon_2" data-name="Polygon 2" d="M8.252,3.147a2,2,0,0,1,3.5,0l6.6,11.882A2,2,0,0,1,16.6,18H3.4a2,2,0,0,1-1.748-2.971Z" transform="translate(34 34) rotate(180)" fill="#fff"/>
</svg>